<?xml version="1.0" encoding="utf-8"?>
<!-- Generator: Adobe Illustrator 27.4.1, SVG Export Plug-In . SVG Version: 6.00 Build 0)  -->
<svg version="1.1" id="Layer_1" xmlns="http://www.w3.org/2000/svg" xmlns:xlink="http://www.w3.org/1999/xlink" x="0px" y="0px"
	 viewBox="0 0 272.9 376.1" style="enable-background:new 0 0 272.9 376.1;" xml:space="preserve">
<style type="text/css">
	.fill-Stack{fill:#FFFFFF;}
	.noFill-Stack{fill:none;}
</style>
<g>
	<path class="fill-Stack" d="M224.6,62.1c8.3-19.7,16.6-39.5,24.8-59.2c0.3-0.9,0.4-1.9,0.6-2.8c-0.6,0-1.2,0-1.8,0
		c-12.8,3.5-25.6,7-38.4,10.5c-8.8,2.4-17.7,4.9-26.5,7.3c-13.5,3.6-27.1,6.9-40.5,10.9c-4.7,1.4-8.7,1.4-13.3,0
		c-21.2-6.2-42.4-12.1-63.7-18.1c-12.3-3.5-24.7-6.9-37-10.3c-0.2,0-0.3-0.3-0.4-0.4c-1,0-1.9,0-2.9,0c1.3,5.2,2.6,10.4,3.9,15.6
		c3.5,13.6,7,27.2,10.5,40.9c0.7,2.9,1.6,5.8,2.5,8.6c1,3.3,0.8,3.4-2.5,3.4c-13.3,0-26.6,0-39.9,0c0,0.6,0,1.2,0,1.7
		c2.6,9.4,5.3,18.7,7.8,28.1c4.3,15.8,8.4,31.7,12.6,47.5c6.7,25.4,13.4,50.7,20.2,76.1c3.9,14.6,7.8,29.3,11.6,43.9
		c0.1,0.3,0.3,0.7,0.5,1c54.1,0,108.3,0,162.4,0c1.1-3.7,2.2-7.3,3.3-11c7.6-25.9,15.1-51.8,22.7-77.7c4.8-16.5,9.8-32.9,14.6-49.4
		c4.9-16.8,9.7-33.7,14.6-50.6c0.8-2.7,1.6-5.5,2.5-8.4c-17.5,0-34.5,0-51.9,0C222.4,66.9,223.6,64.5,224.6,62.1z M130.4,54.8
		c1.4-0.8,3.2-1.2,4.8-1c1.6,0.2,2.3-0.2,3.2-1.6c0.6-1.1,2-2,3.2-2.4c8-2.1,13.2,3.1,18.6,7.4c1.8,1.4,0.9,3.5,0,5.3
		c-5.9,13.2-11.9,26.4-17.7,39.6c-5.1,11.6-10,23.2-15,34.8c-0.4,1-1,1.9-1.6,2.9c-0.2-0.1-0.3-0.2-0.5-0.3c0-10.8,0-21.6,0-32.4
		c0-14.2,0-28.4,0-42.6C125.4,60.4,126.6,56.9,130.4,54.8z M92.6,232.3c-4,2.5-7.7,5.4-12.2,8.5c-1-1.6-2.6-3.2-3.2-5.2
		c-0.9-2.6-1-5.5-1.9-8.1c-1-3.1-2.1-6.2-3.9-8.8c-2.4-3.4-2.4-8.5,0.2-11.8c2.5-3.1,2.6-7,2.3-10.8c-0.1-1.6-0.3-3.2,0.1-4.6
		c0.4-1.9,1.4-3.6,1.9-5.5c0.6-2.3-0.1-4-2.7-4.5c-1.6-0.3-3.2-0.8-4.8-1.1c-3.5-0.6-5.9-3.9-5.4-7.5c0.9-6.7-0.3-12.7-5.9-17.2
		c-1.5-1.2-1.5-2.2,0.1-3.4c1.3-1,2.3-2.3,3.4-3.6c1.6-1.8,2.4-3.4-0.1-5.2c-0.6-0.4-0.8-1.9-0.8-2.9c0.1-3.6,0.4-7.1,0.6-10.6
		c0.1-1.8-0.7-2.6-2.4-2.4c-4.4,0.4-6.8-2.2-8.9-5.6c-1.2-2-2.9-3.8-4.5-5.6c-1.4-1.6-1.3-2.8,0.4-4.1c3.2-2.5,5.1-5.7,3.7-9.8
		c-0.5-1.6-1.7-3.1-2.8-4.4c-1.2-1.4-2.8-2.4-3.9-3.9c-1.5-1.9-0.8-3.6,1.6-3.5c6.4,0.3,12.8,1,19.2,1.5c1.2,0.1,2.6-0.1,3.6-0.6
		c2-0.9,3.9-2.1,5.7-3.3c2.2-1.4,3.2-0.6,4.3,1.6c1.5,2.9,3.3,5.8,5.5,8.3c2.2,2.5,4.5,2,8.1-1c2.5-2,2.8-3.8,1-6.5
		c-1.5-2.4-3-4.8-4.7-7c-1-1.3-2.2-2.8-3.6-3.2c-5.2-1.8-7.9-6.1-11-10c-1-1.3-1.4-3.6-1.2-5.3c0.8-4.9-1.2-10.3-5.4-13.1
		c-1.2-0.8-2.3-1.7-3.4-2.5c0-0.5,0-0.9,0.1-1.4c1.7-0.3,3.8-1.3,5.2-0.7c4.9,1.8,9.9,1.3,14.9,1.4c1.7,0,3.5,0.7,5,1.6
		c2.6,1.5,4.9,3.5,7.4,5.1c2.6,1.7,3.6,3.9,3.6,7.1c-0.1,21.9-0.1,43.9-0.1,65.8c0,31.1-0.1,62.3,0.1,93.4
		C98.1,226.6,96.5,229.8,92.6,232.3z M157.5,227.5c-3.6,4.1-7.6,8-11.4,11.9c-1.5,1.6-3,1.5-4.8,0.1c-3.4-2.6-6.9-4.9-10.5-7.2
		c-3.8-2.5-5.6-5.8-5.5-10.4c0.2-4.5,0-9.1,0-13.6c-2-11.9,1.6-22.6,6.6-33.2c1.7-3.6,2.9-7.3,4.5-11c0.3-0.7,1-1.2,1.6-1.7
		c0.4,0.6,1,1.1,1.2,1.7c6.3,19.7,12.7,39.4,18.9,59.2C158.6,224.6,158.4,226.6,157.5,227.5z M226.1,93.3c-1.3,2.9-2.7,5.5-3.7,8.3
		c-0.4,1-0.4,2.6,0.1,3.6c1,1.9,1.2,3.6-0.1,5.4c-0.7,1-1.3,2.2-2.1,3.1c-1.6,1.8-1.9,3.4,0.1,5.1c1.3,1.2,0.9,2.4-0.1,3.8
		c-2.9,4.2-5.8,8.4-8.4,12.8c-1,1.8-1.3,4-1.9,6c-0.7,2.8-1.9,5-4.8,6.1c-0.6,0.3-1.2,0.7-1.7,1.1c-3.1,2.3-3.5,3.6-1.2,6.7
		c2.6,3.4,5.7,6.5,8.7,10c-0.5,0.3-0.7,0.7-1.1,0.8c-4,1.3-5.5,3.9-4.4,8c0.5,1.8-0.7,2.4-2.3,3c-2.4,0.9-4.8,2-6.9,3.5
		c-2.8,2-2.9,3.8-0.6,6.2c2.1,2.2,2.5,3.7,0.3,6.3c-2.3,2.7-0.8,6.5,0.9,8.6c3.8,4.9,3.2,8.3-1.3,12.4c-3.3,3-5.4,7.1-4.1,12
		c0.2,0.7-0.1,1.5-0.3,2.3c-0.8,2.9-2,3.4-3.9,1.2c-2-2.4-4.2-5-5.2-7.9c-10-29.6-19.7-59.3-29.4-89c-0.5-1.6-0.4-3.7,0.2-5.2
		c8.8-20.2,17.8-40.4,26.8-60.6c2.1-4.8,5.7-8.5,9.9-11.5c3-2.2,5.8-4.5,8.8-6.7c0.8-0.6,1.7-1,3.1-1.9c-0.2,1.2-0.2,1.7-0.4,2.2
		c-1,2.5-1.9,5-3,7.5c-0.5,1.1-1.1,2.4-2.1,3c-2.3,1.4-2.9,3.4-2.8,5.9c0.1,3.9,0.1,7.9,0.1,11.9c0,4.4-0.5,4.6-4.4,6.3
		c-4.1,1.8-8.2,3.9-11.9,6.3c-1.9,1.3-3.6,3.6-1.6,6.2c0.6,0.8,1.9,1.6,2.7,1.5c2.5-0.5,5.2-1,7.3-2.4c5.4-3.6,10.2-3.9,15.4,0.1
		c3.2,2.4,6.2,2.8,9.7,1.5c2.4-0.9,4.8-2,7.2-2.9C220.8,92.7,223.5,92.2,226.1,93.3z"/>
	<path class="noFill-Stack" d="M30.4,353.9c-0.8,0-1.1,0.3-1.1,1.1c0.1,1.2,0,2.3,0,3.5c0,0,0.1,0,0.1,0c0,0.6,0,1.2,0,1.9c0,0.7-0.1,1.3,0,2
		c0,0.3,0.3,0.9,0.5,0.9c1.4,0.5,3.4-0.4,3.8-1.9c0.3-1.3,0.4-2.8,0.4-4.2C34.1,354.6,33,353.8,30.4,353.9z"/>
	<path class="noFill-Stack" d="M53,353.9c-1.1,0-1.3,0.9-1.6,1.7c-1.6,4.3-1.3,8.8-0.8,13.3c0.2,1.5,0.6,2.9,1.1,4.3c0.2,0.5,0.9,1.1,1.4,1.2
		c0.5,0,1.2-0.5,1.5-1c0.5-0.7,0.8-1.5,0.9-2.3c0.4-2.3,0.6-4.6,0.9-6.9c-0.2-3-0.2-5.9-1.5-8.7C54.7,354.6,54.1,353.9,53,353.9z"/>
	<path class="noFill-Stack" d="M189.6,335.1c0.7-1.1,1.2-2.5,1.5-3.8c1.4-5.1,1.4-10.3,1.2-15.5c0-3.3,0.3-6.6-0.1-9.9
		c-0.3-3.1-1.2-6.2-2.1-9.2c-0.4-1.4-1.5-3-3.3-2.9c-1.8,0.1-2.7,1.7-3.2,3.3c-0.6,1.8-1.1,3.6-1.3,5.4c-0.3,5.6-0.6,11.1-0.6,16.7
		c0,3.1,0.4,6.3,0.9,9.4c0.3,2.1,0.9,4.2,1.8,6.1C185.7,337.4,188.1,337.4,189.6,335.1z"/>
	<path class="noFill-Stack" d="M74.6,354c-0.2,0.1-0.6,0.5-0.6,0.8c0,2.7,0,5.4,0,8.3c2.7,0.2,4.3-0.4,4.6-2.2c0.3-1.5,0.2-3.2,0-4.8
		C78.2,354.4,76.2,353.5,74.6,354z"/>
	<path class="noFill-Stack" d="M214.5,354c-0.2,0.1-0.5,0.4-0.6,0.7c0,2.8,0,5.6,0,8.3c3.2,0.5,4.6-0.6,4.7-3.6c0-1.1,0-2.2-0.2-3.2
		C218,354.5,216.1,353.4,214.5,354z"/>
	<path class="noFill-Stack" d="M192.4,361.7c-0.2-1-0.5-2-0.8-3c-0.1-0.1-0.2-0.1-0.4-0.2c0,0.2-0.1,0.3-0.2,0.5c-0.6,2.6-1.2,5.2-1.7,7.8
		c0,0.2,0.4,0.8,0.7,0.8c0.9,0.1,1.7,0,2.6,0.1c0.8,0,1-0.3,0.8-1.1C193.1,364.9,192.7,363.3,192.4,361.7z"/>
	<path class="fill-Stack" d="M244.9,339.1c-0.4,0.3-0.7,0.7-1.1,1c0,0.1,0.1,0.2,0.2,0.3c9.7,0,19.4,0,29,0c0-5.9,0-11.8,0-17.8
		c-0.8-0.5-1.1-0.1-1.4,0.6c-1.7,3.8-3.5,7.5-5.1,11.4c-0.6,1.5-1.6,2.2-3.1,2.2c-1.8,0.1-3.6,0-5.4,0c-0.7,0-0.9-0.3-0.9-1
		c0-6,0-12,0-18c0-0.8,0.3-1,1-1c1.2-0.1,2.3,0.1,3,1.3c0.8,1.3,1.7,2.4,2.7,3.6c0.4,0.5,0.8,0.8,1.6,1.5c0.1-0.9,0.2-1.4,0.2-1.9
		c0-4.1,0-8.2,0-12.4c0-0.5-0.2-0.9-0.4-1.4c-0.4,0.3-1,0.4-1.3,0.8c-1.1,1.3-2.1,2.6-3.1,3.9c-0.8,1.1-2,1.1-3.1,0.9
		c-0.2,0-0.5-0.5-0.5-0.8c0-6.1,0-12.2,0-18.6c1.4,0,2.7,0.2,4,0c3.2-0.5,4.9,1,6,3.9c1.2,3.1,2.7,6,4.1,9.1
		c0.4,0.9,0.9,1.5,1.9,1.5c0-5.9,0-11.8,0-17.8c-1.6,0-3.2,0-4.7,0c-7.8,0-15.6-0.1-23.5-0.1c-0.3,0-0.6,0.2-0.9,0.3
		c0.2,0.3,0.3,0.7,0.5,0.9c0.8,0.5,1.7,1,2.6,1.5c1.2,0.7,1.7,1.6,1.7,3c0,11.9,0,23.8,0,35.7C248.6,337.3,249.6,336.1,244.9,339.1z
		"/>
	<path class="fill-Stack" d="M253.4,375.4c-1.5-0.7-1.8-1.9-1.8-3.5c0-5.5,0-11.1,0-16.6c0-0.6,0.5-1.2,0.9-1.7c0.4-0.5,0.9-0.8,1.4-1.2
		c-0.8-0.3-1.5-0.3-2.2-0.3c-1.5,0.1-3,0.2-4.5,0.2c-1.2-0.1-1.7,0.3-2,1.5c-0.9,3.8-1.8,7.7-2.8,11.5c-0.1,0.4-0.3,0.8-0.5,1.2
		c-0.4-0.3-0.5-0.7-0.6-1c-1-4.1-2.1-8.2-3.1-12.3c-0.2-0.7-0.6-1-1.4-0.9c-1.2,0.1-2.4,0.1-3.6,0.1c-1.1,0-2.2-0.1-3.6-0.2
		c0.5,0.4,0.6,0.7,0.9,0.8c1.2,0.8,1.6,1.9,1.6,3.4c-0.1,5.2-0.1,10.3,0,15.5c0,1.5-0.2,2.8-1.7,3.6c-0.2,0.1-0.4,0.5-0.6,0.8
		c2.6,0,5.2,0,7.7,0c0-0.1,0-0.2-0.1-0.2c-2-1.1-2-3-2-5c0-3.5,0-7.1-0.1-10.6c0-0.4,0-0.8,0.1-1.2c0.1,0,0.2,0,0.3,0
		c1.5,5.7,3,11.3,4.5,17c0.8,0,1.5,0,2.2,0c1.4-5.7,2.7-11.3,4.1-17c0.1,0,0.2,0,0.3,0c0,0.4,0.1,0.9,0.1,1.3c0,4.2,0,8.3-0.1,12.5
		c0,0.7-0.6,1.4-1,2.1c-0.2,0.4-0.6,0.7-0.9,1.1c3,0,6,0,9,0C253.9,375.9,253.7,375.6,253.4,375.4z"/>
	<path class="fill-Stack" d="M139.1,353.3c1,0.6,1.4,1.3,1.4,2.5c-0.1,3,0,6,0.1,9c0,0.4-0.1,0.8-0.3,1.5c-0.3-0.5-0.4-0.7-0.5-0.9
		c-1.6-4.1-3.2-8.1-4.8-12.1c-0.4-0.9-0.9-1.3-1.9-1.2c-1.3,0.1-2.6,0.1-3.9,0c-1,0-2.1-0.1-3.1-0.1c0.5,0.7,1.1,1.2,1.6,1.7
		c0.4,0.4,0.7,1,0.7,1.6c0,5.5-0.1,11,0,16.5c0,1.6-0.2,2.9-1.8,3.6c-0.3,0.1-0.4,0.5-0.6,0.7c3.1,0,6.2,0,9.2,0
		c-0.5-0.3-0.9-0.8-1.4-1c-1.3-0.4-1.6-1.2-1.6-2.5c0-4.4-0.1-8.8-0.1-13.2c0-0.3,0-0.6,0-0.8c0.1,0,0.2-0.1,0.3-0.1
		c0.4,0.7,0.9,1.4,1.2,2.2c2.1,5.1,4.1,10.3,6.2,15.5c1.5,0,3,0,4.5,0c0-0.5,0.1-1,0.1-1.5c0-6.3,0-12.7-0.1-19c0-0.9,0.3-1.6,1-2.1
		c0.5-0.4,1-0.8,1.8-1.5c-3.4,0-6.3,0-9.5,0C138.1,352.6,138.6,353,139.1,353.3z"/>
	<path class="fill-Stack" d="M225.6,375.8c-2.7-0.9-2.9-2.9-2.6-5.3c0-0.1,0-0.2,0-0.2c0.3-2.8-0.3-5.1-3.3-6.2c0,0,0-0.1-0.1-0.3
		c0.3-0.2,0.7-0.5,1-0.7c2-1.2,2.9-2.9,2.8-5.3c-0.1-2.3-1.4-3.8-3.4-4.6c-0.6-0.3-1.3-0.5-2-0.6c-2.5-0.1-5-0.2-7.5-0.3
		c-1.2-0.1-2.4-0.2-3.6-0.3c0,0.1-0.1,0.2-0.1,0.3c0.6,0.4,1.2,0.8,1.7,1.3c0.4,0.4,0.7,1,0.7,1.4c0,5.9-0.1,11.8-0.1,17.7
		c0,1.1-0.4,1.7-1.3,2.2c-0.4,0.2-0.7,0.7-1,1.1c3.2,0,6.3,0,9.5,0c-0.5-0.4-0.9-0.9-1.4-1.2c-0.8-0.5-1.2-1-1.2-2
		c0.1-2.6,0-5.2,0-7.8c2.7-0.7,4.5,0.6,4.5,3.3c0,1.7,0,3.4,0,5.1c0,1.2,0.2,2.2,1.5,2.6c2,0,4,0,6,0
		C225.8,376,225.7,375.8,225.6,375.8z M213.9,362.9c0-2.7,0-5.5,0-8.3c0-0.2,0.3-0.6,0.6-0.7c1.6-0.5,3.5,0.5,3.9,2.2
		c0.2,1,0.3,2.1,0.2,3.2C218.5,362.3,217,363.4,213.9,362.9z"/>
	<path class="fill-Stack" d="M83.2,372.8c0.1-1.5-0.1-2.9,0-4.4c0.1-1.8-0.8-3-2.3-3.8c-0.4-0.2-0.8-0.4-1.4-0.8c0.6-0.4,0.9-0.6,1.3-0.8
		c1.8-1,2.7-2.5,2.8-4.5c0.1-3.1-1.6-5.2-5.2-5.8c-2.5-0.4-5.1-0.2-7.6-0.4c-1.4-0.1-2.8-0.2-4.1-0.3c0,0.1-0.1,0.2-0.1,0.3
		c0.6,0.4,1.3,0.8,1.9,1.3c0.4,0.4,0.8,1,0.8,1.5c0,5.9,0,11.7,0,17.6c0,1.1-0.4,1.9-1.4,2.4c-0.4,0.2-0.7,0.7-1,1
		c3.2,0,6.5,0,9.8,0c-0.2-0.2-0.4-0.5-0.6-0.6c-1.9-0.7-2.2-2.2-2.1-4c0.1-1.9,0.1-3.8,0-5.6c0-0.8,0.3-1,1-1c2.3,0,3.6,1.3,3.6,3.6
		c0,1.7-0.1,3.4-0.1,5.1c0,1.2,0.3,2.2,1.7,2.5c1.9,0,3.8,0,5.8,0c-0.5-0.4-0.9-0.8-1.4-1.1C83.6,374.5,83.1,373.9,83.2,372.8z
		 M78.5,360.8c-0.3,1.8-1.9,2.4-4.6,2.2c0-2.8,0-5.5,0-8.3c0-0.3,0.3-0.7,0.6-0.8c1.6-0.5,3.6,0.4,3.9,2.1
		C78.8,357.6,78.8,359.3,78.5,360.8z"/>
	<path class="fill-Stack" d="M199.6,371.8c-1.1-4.8-2.2-9.6-3.4-14.4c-0.7-2.8-1.5-5.6-2.1-8.5c-0.3-1.3-1.2-1.1-2.2-1.1
		c-0.9,0-1.4,0.2-1.6,1.2c-1.7,7.4-3.4,14.7-5.1,22.1c-0.4,1.7-0.9,3.4-2.7,4.2c-0.2,0.1-0.3,0.5-0.5,0.7c2.8,0,5.5,0,8.3,0
		c-0.6-0.5-1.2-0.9-1.7-1.5c-0.3-0.4-0.4-1-0.6-1.5c0-0.1,0-0.2,0.1-0.4c0.3-1.1,0.6-2.1,0.9-3.2c1.6,0,3.1,0,4.7,0
		c0.2,0,0.5,0.4,0.7,0.7c0.1,0.2,0,0.6,0.1,0.8c0.7,1.7,1,3.3-1.2,4.2c-0.2,0.1-0.2,0.4-0.3,0.6c3.4,0,6.8,0,10.2,0
		c-0.4-0.3-0.7-0.7-1.1-0.8C200.6,374.6,199.9,373.4,199.6,371.8z M192.6,367.6c-0.9,0-1.8,0.1-2.6-0.1c-0.3,0-0.7-0.6-0.7-0.8
		c0.5-2.6,1.1-5.2,1.7-7.8c0-0.2,0.1-0.3,0.2-0.5c0.1,0,0.2,0.1,0.4,0.2c0.3,1,0.6,2,0.8,3c0.4,1.6,0.7,3.2,1.1,4.8
		C193.7,367.3,193.4,367.6,192.6,367.6z"/>
	<path class="fill-Stack" d="M60,356.7c-1.2-2.9-3.9-4.6-6.9-4.5c-3.4,0.1-5.6,1.7-6.7,5c-1.6,4.8-1.5,9.7,0.1,14.4c0.7,2.1,2,3.9,4.4,4.5
		c1.7,0,3.3,0,5,0c1.5-0.5,2.7-1.5,3.4-2.9c0.6-1.1,1.2-2.3,1.3-3.5c0.3-2.7,0.6-5.4,0.5-8.1C61.1,360,60.6,358.3,60,356.7z
		 M55.6,371.1c-0.1,0.8-0.5,1.6-0.9,2.3c-0.3,0.5-1,1-1.5,1c-0.5,0-1.2-0.7-1.4-1.2c-0.5-1.4-1-2.8-1.1-4.3c-0.5-4.5-0.7-9,0.8-13.3
		c0.3-0.8,0.5-1.6,1.6-1.7c1.1,0,1.6,0.7,2,1.6c1.2,2.8,1.2,5.7,1.5,8.7C56.2,366.5,56,368.8,55.6,371.1z"/>
	<path class="fill-Stack" d="M12.4,361.4c-1.3-1.9-2.7-3.8-4-5.8c-0.7-1.1-1.2-2.4-1.6-3.6c-0.1-0.5,0.1-1.4,0.5-1.8
		c0.4-0.3,1.3-0.4,1.8-0.2c0.6,0.2,1.2,0.7,1.7,1.2c1.7,1.5,2.8,3.4,3.5,5.6c0.1,0.4,0.6,0.7,1,1.1c0.2-0.4,0.5-0.8,0.5-1.2
		c0-2.6-0.1-5.2-0.2-7.7c0-0.4-0.3-1.2-0.5-1.2c-0.5,0-1.2,0.2-1.4,0.5c-0.8,1.1-1.6,0.9-2.6,0.4c-0.3-0.2-0.7-0.3-1-0.4
		c-2.2-0.8-4.3-0.5-6,1c-1.6,1.4-1.8,3.4-1.3,5.4c0.9,3,2.4,5.6,4.2,8c1.4,1.9,2.6,3.8,3.9,5.8c0.5,0.8,0.9,1.8,1.2,2.7
		c0.3,1,0.3,2-0.6,2.6c-0.8,0.6-1.8,0.5-2.6-0.1c-1-0.8-2-1.7-2.7-2.7c-0.8-1.2-1.2-2.6-1.8-4c-0.1-0.3-0.5-0.5-0.8-0.8
		c-0.2,0.4-0.4,0.7-0.4,1c0,3,0,5.9,0,8.9c0.5,0,1,0,1.5,0c1.3-1.1,2.7-0.4,4,0c1.4,0,2.8,0,4.2,0c1.6-0.6,2.8-1.5,3.2-3.2
		c0.6-2.2,0.6-4.5-0.7-6.5C14.6,364.7,13.5,363.1,12.4,361.4z"/>
	<path class="fill-Stack" d="M160,363.9c-0.1,0.1-0.2,0.3-0.3,0.4c0.3,0.1,0.6,0.3,0.9,0.4c2.2,0.5,2.1,2.2,2,3.9c0,0.7,0.1,1.4,0,2
		c-0.1,0.8-0.3,1.6-0.7,2.4c-0.5,1.1-1.6,1.5-2.7,1.5c-1.1-0.1-1.5-1.1-1.8-2c-0.1-0.3-0.2-0.6-0.2-1c-0.1-4-0.3-7.9-0.3-11.8
		c0-1.4,0.4-2.9,0.8-4.3c0.5-1.5,1.9-2,3.3-1.3c0.7,0.4,1.5,0.9,2,1.6c1,1.2,1.7,2.6,2.6,3.8c0.4,0.5,0.8,1,1.3,1.5
		c0.2-0.3,0.3-0.4,0.3-0.5c0-2.7,0-5.3-0.1-8c0-0.1-0.5-0.4-0.7-0.4c-0.5,0.1-1,0.3-1.4,0.6c-0.7,0.5-1.4,0.5-2.2,0.1
		c-4.8-2.1-9.2,0-10.4,5.1c-1,4.2-0.9,8.5,0.1,12.6c0.6,2.5,1.9,4.6,4.6,5.4c1.5,0,3,0,4.5,0c1.2-0.4,2.5-1.4,3.8,0
		c0.6,0,1.2,0,1.8,0c0-0.3,0.1-0.6,0.1-1c0-2.7,0-5.3-0.2-8c0-1.1,0.2-1.7,1.3-2c0.5-0.1,0.9-0.6,1.3-0.9c0-0.1-0.1-0.2-0.1-0.4
		C166.4,363.9,163.2,363.9,160,363.9z"/>
	<path class="fill-Stack" d="M33.1,352.4c-2.8-0.2-5.6-0.2-8.5-0.3c-0.8,0-1.7-0.1-2.5-0.2c0,0.1-0.1,0.2-0.1,0.3c0.6,0.5,1.1,1.1,1.8,1.4
		c0.8,0.4,1,1,1,1.8c-0.1,5.5-0.1,11.1-0.1,16.6c0,1.7-0.4,2.8-1.9,3.5c-0.2,0.1-0.4,0.4-0.6,0.6c3.5,0,7,0,10.5,0
		c-0.8-0.4-1.5-0.9-2.3-1.3c-0.7-0.3-1-0.7-1-1.5c0-2.4,0-4.8-0.1-7.2c0-0.7,0.2-1,0.9-1c1,0,2.1-0.1,3.1-0.2
		c5.3-0.7,6.7-5.4,5.4-8.9C37.8,353.3,35.5,352.6,33.1,352.4z M33.7,361.4c-0.4,1.5-2.4,2.4-3.8,1.9c-0.3-0.1-0.5-0.6-0.5-0.9
		c-0.1-0.7,0-1.3,0-2c0-0.6,0-1.2,0-1.9c0,0-0.1,0-0.1,0c0-1.2,0-2.3,0-3.5c0-0.8,0.3-1.1,1.1-1.1c2.6-0.1,3.7,0.8,3.7,3.3
		C34.2,358.6,34.1,360,33.7,361.4z"/>
	<path class="fill-Stack" d="M270.7,366.3c-2.1-2.6-4.3-5.2-6.3-7.9c-0.6-0.9-0.9-2-1.1-3.1c-0.2-0.9,0.5-1.6,1.4-1.3
		c1.1,0.4,2.2,0.8,3,1.6c1.1,1.2,1.9,2.7,2.8,4.1c0.4,0.5,0.9,0.9,1.3,1.3c0.1-0.1,0.2-0.2,0.3-0.3c0-2.9,0-5.7,0-8.9
		c-1,0.4-1.8,0.6-2.4,1c-0.7,0.4-1.4,0.5-2.1,0.2c-0.4-0.2-0.8-0.3-1.2-0.4c-2.4-0.7-4.8-0.4-6.4,1.5c-1.6,1.8-0.7,3.9,0.2,5.8
		c0.1,0.2,0.2,0.5,0.4,0.7c1.5,2.1,3.1,4.2,4.7,6.3c1,1.5,2.1,3,3,4.6c0.5,0.9,0.7,2-0.3,2.7c-1,0.7-2,0.3-2.9-0.2
		c-0.4-0.3-0.9-0.6-1.1-1c-0.8-1.2-1.6-2.5-2.4-3.8c-0.4-0.6-0.9-1.2-1.3-1.8c-0.1,0.1-0.1,0.1-0.2,0.2c0,2.9,0,5.7,0,8.5
		c3.2,0,6.5,0,9.8,0c1.9-0.5,2.9-1.6,3.2-3.5c0-0.8,0-1.5,0-2.2C272.7,368.7,271.7,367.5,270.7,366.3z"/>
	<path class="fill-Stack" d="M106.8,352.2c-5.3,0-10.6,0.1-16,0.1c-0.8,0-1,0.3-1,1c0,2.2-0.1,4.4-0.1,6.6c0,0.3,0.1,0.6,0.2,0.9
		c0.1,0,0.2,0.1,0.3,0.1c0.5-0.7,1-1.3,1.4-2c0.7-1.4,1.3-2.8,1.9-4.2c0.5-1.1,1.5-0.9,2.4-0.7c0.3,0,0.5,0.9,0.5,1.4
		c0,5.6,0,11.2,0.1,16.9c0,1.6-0.3,2.6-1.9,3.2c-0.3,0.1-0.5,0.4-0.7,0.7c3.3,0,6.7,0,10,0c-0.3-0.3-0.6-0.6-0.9-0.8
		c-1.6-0.5-1.8-1.6-1.8-3.1c0.1-5.6,0-11.2,0-16.8c0-0.6-0.3-1.5,0.7-1.6c0.9-0.1,1.9-0.2,2.4,1c0.6,1.6,1.4,3.1,2.1,4.6
		c0.3,0.5,0.8,0.9,1.4,1.5c0.1-0.5,0.2-0.7,0.2-0.8c0-2.4-0.1-4.8-0.1-7.1C107.9,352.3,107.4,352.2,106.8,352.2z"/>
	<path class="fill-Stack" d="M119.8,372.6c0-5.7,0-11.5-0.1-17.2c0-0.9,0.3-1.4,1.1-1.8c0.6-0.3,1.1-0.8,1.7-1.2c-0.1-0.1-0.1-0.2-0.2-0.3
		c-3.2,0-6.5,0-10,0c0.7,0.5,1.1,1,1.7,1.3c1,0.4,1.2,1.1,1.2,2.2c-0.1,5.7-0.1,11.3-0.1,17c0,1.2-0.5,2-1.6,2.6
		c-0.4,0.2-0.6,0.6-0.9,1c3.2,0,6.5,0,9.8,0c-0.4-0.4-0.8-0.8-1.2-1C120.1,374.6,119.8,373.8,119.8,372.6z"/>
	<path class="fill-Stack" d="M20.3,338.9c-0.4,0.4-0.7,0.9-1.1,1.5c6,0,11.8,0,17.5,0c0.1-0.1,0.1-0.2,0.2-0.3c-0.5-0.5-0.9-1.1-1.5-1.5
		c-0.9-0.7-1.9-1.3-2.8-2.1c-0.7-0.6-1.4-1.3-1.7-2.1c-0.9-2.2-1.6-4.6-2.4-6.8c-2.2-6.3-4.4-12.6-6.5-18.9
		c-0.2-0.5-0.2-1.2,0.1-1.8c2.3-5.2,4.8-10.2,7.1-15.4c1.1-2.6,2.9-4.6,5.2-6.2c0.7-0.5,1.4-1,2-1.5c0.2-0.2,0.4-0.5,0.6-0.8
		c-5.9,0-11.6,0-17.3,0c-0.1,0.1-0.1,0.2-0.1,0.3c0.4,0.4,0.9,0.8,1.3,1.1c0.9,0.7,1.9,1.3,2.8,2.1c0.3,0.3,0.5,1.1,0.3,1.5
		c-0.6,1.5-1.3,3-2,4.6c-2.6,5.8-5.2,11.7-7.9,17.5c-0.1,0.1-0.2,0.2-0.5,0.5c-0.1-0.5-0.2-0.8-0.2-1.1c0-6.4,0.2-12.8,0.1-19.1
		c-0.1-2.6,0.9-4.3,3.1-5.4c0.3-0.2,0.7-0.4,0.9-0.6c0.3-0.3,0.6-0.7,1.1-1.3c-6.4,0-12.4,0-18.4,0c-0.1,0.1-0.1,0.2-0.1,0.4
		c1.1,0.8,2.3,1.6,3.4,2.4c1.2,0.8,1.7,1.8,1.6,3.2c-0.1,14.1-0.1,28.2-0.1,42.4c0,5.4,0.8,4.2-3.7,7.2c-0.6,0.4-1,1-1.5,1.5
		c0.1,0.1,0.2,0.2,0.2,0.3c6.1,0,12.1,0,18.2,0c0.1-0.1,0.1-0.2,0.2-0.3c-0.5-0.5-0.9-1-1.4-1.4c-0.6-0.5-1.3-0.9-2-1.3
		c-1.2-0.7-1.7-1.7-1.7-3.1c0.1-2,0.2-4,0-6c-0.4-4.3,2.4-7.5,3.6-11.2c0.4,0.4,0.6,0.9,0.8,1.3c1.8,5.3,3.6,10.7,5.5,16
		c0.3,0.8,0.1,1.5-0.6,2.1C21.9,337.3,21.1,338.1,20.3,338.9z"/>
	<path class="fill-Stack" d="M232.4,340.4c0.9-0.1,1.8,0,2.6,0c1.7,0,1.9-0.1,1.9-1.8c0-0.2,0-0.3,0-0.5c0-13.9,0-27.8,0-41.7
		c0-1.4,0.5-2.5,1.7-3.2c0.7-0.4,1.4-0.8,2.1-1.4c0.3-0.2,0.3-0.7,0.5-1.1c-0.3-0.1-0.7-0.3-1-0.3c-4.4,0-8.8,0-13.2,0.1
		c-0.4,0-0.9,0.2-1.3,0.2c0,0.1,0,0.3,0,0.4c1,0.6,2,1.3,3,1.9c1.4,0.7,1.9,1.8,1.8,3.3c0,7.4,0,14.8,0,22.2c0,0.3-0.1,0.6-0.2,0.9
		c-0.1,0-0.2,0-0.2,0c-0.8-2.5-1.6-4.9-2.4-7.4c-2.2-6.5-4.5-13.1-6.7-19.6c-0.7-2-0.8-2-2.9-2c-3.8,0-7.7-0.1-11.5-0.1
		c-0.3,0-0.6,0.1-0.9,0.2c0,0.1,0,0.2-0.1,0.3c0.9,0.6,1.9,1.3,2.8,1.9c1.2,0.8,1.7,1.8,1.7,3.2c-0.1,11.9-0.2,23.8,0,35.7
		c0.1,3.3-0.8,5.5-3.6,7.1c-0.4,0.2-0.7,0.7-1.2,1.2c0.6,0.1,0.9,0.2,1.1,0.2c4.6,0,9.2,0.1,13.9,0.1c0.3,0,0.7-0.2,1.4-0.5
		c-1.4-1-2.4-1.8-3.6-2.4c-1.4-0.7-1.8-1.8-1.8-3.3c0-9.8,0-19.6,0-29.4c0-0.6,0.1-1.2,0.1-1.8c0.4,0.2,0.6,0.5,0.7,0.8
		c0.4,1.1,0.6,2.3,1,3.5c2.7,8,5.5,16.1,8.2,24.1c0.8,2.3,1.8,4.5,2.6,6.7C229.7,339.7,230.7,340.5,232.4,340.4z"/>
	<path class="fill-Stack" d="M194.2,338.2c3.4-2.3,5-5.8,6-9.5c1.2-4.5,1.3-9.1,1.3-13.8c0.1,0,0.2,0,0.4,0c-0.5-4.1-0.7-8.3-1.4-12.4
		c-1-5.6-4.8-11.1-11.9-11.8c-4.1-0.4-10.1,1.3-12.6,6.3c-1.4,2.8-2.1,5.7-2.5,8.7c-0.8,6.2-0.7,12.5,0,18.7c0.4,3.5,1,7,3.1,10.2
		C180.5,340.5,188.3,342.2,194.2,338.2z M184.6,334.9c-0.9-1.9-1.5-4-1.8-6.1c-0.5-3.1-0.9-6.3-0.9-9.4c0-5.6,0.2-11.1,0.6-16.7
		c0.1-1.8,0.7-3.7,1.3-5.5c0.5-1.6,1.4-3.2,3.2-3.3c1.7-0.1,2.8,1.4,3.3,2.8c0.9,3,1.8,6.1,2.1,9.2c0.4,3.2,0.1,6.6,0.1,9.9
		c0.1,5.2,0.1,10.4-1.2,15.5c-0.4,1.3-0.8,2.6-1.5,3.8C188.1,337.4,185.7,337.4,184.6,334.9z"/>
	<path class="fill-Stack" d="M67.4,338.4c0-4.9,0.1-9.8,0-14.7c0-0.4-0.3-0.8-0.5-1.1c-0.4,0.2-1,0.4-1.1,0.7c-1.7,3.7-3.4,7.4-5,11.2
		c-0.8,1.8-1.4,2.3-3.4,2.4c-0.9,0-1.8,0-2.8,0c-3.2,0-3.2,0-3.2-3.2c0-5.2,0-10.3,0-15.5c0-0.4,0.2-1.1,0.5-1.2
		c1.1-0.5,2.5,0,3.3,1c0.9,1.2,1.8,2.5,2.7,3.7c0.4,0.5,0.9,0.7,1.4,1.1c0.2-0.6,0.5-1.1,0.5-1.7c0.1-1.9,0-3.8,0-5.6
		c0-2.3,0-4.6,0-6.9c0-0.4-0.3-0.7-0.5-1c-0.3,0.2-0.7,0.3-1,0.6c-1,1.2-1.9,2.4-2.8,3.7c-0.8,1.1-1.7,1.6-3.1,1.5
		c-0.7-0.1-1-0.3-1-1c0-5.8,0-11.7,0-17.5c0-0.8,0.4-1,1.1-1c1,0,2.1,0,3.1,0c3.8,0,4.1,0.2,5.6,3.7c0.1,0.2,0.1,0.4,0.2,0.6
		c1.4,3,2.9,6.1,4.4,9.1c0.2,0.4,0.8,0.7,1.3,1c0.1-0.4,0.4-0.9,0.4-1.3c0-4.8,0-9.6-0.1-14.4c0-1.8-0.2-2-2-2c-8.7,0-17.3,0-26,0
		c-0.4,0-0.9,0.1-1.3,0.2c0,0.1-0.1,0.2-0.1,0.4c0.8,0.5,1.5,1,2.3,1.3c2.1,0.9,2.9,2.4,2.8,4.7C43,309.5,43,321.7,43,334
		c0,1.8-0.5,3-2,3.8c-0.6,0.3-1.2,0.6-1.7,1c-0.5,0.3-0.9,0.8-1.4,1.1c0.1,0.1,0.1,0.2,0.2,0.3c0.4,0,0.7,0.1,1.1,0.1
		c8.8,0,17.5,0,26.2-0.1C67.3,340.4,67.4,340.3,67.4,338.4z"/>
	<path class="fill-Stack" d="M136.7,308.1c0.3,0,0.7-0.2,1-0.5c0.2-0.2,0.3-0.6,0.5-0.9c1.4-3.3,2.7-6.5,4.1-9.8c1.6-3.7,1-3.1,4.8-3.2
		c0.9,0,1.2,0.3,1.2,1.2c0,13.4,0,26.8,0,40.2c0,1.1-0.4,1.8-1.3,2.4c-0.9,0.5-1.7,1-2.6,1.5c-0.4,0.3-0.7,0.7-1.1,1
		c0.1,0.1,0.1,0.2,0.2,0.3c6,0,12,0,18,0c0.1-0.2,0.1-0.4,0.2-0.5c-1.1-0.7-2.2-1.5-3.5-2.1c-1.4-0.7-1.9-1.7-1.9-3.2
		c0-11.8,0-23.5,0-35.2c0-1.5,0-3.1,0-4.6c0-0.7,0.2-1.1,1-1c4.3,0.3,3.3-0.7,5.1,3.3c0.1,0.3,0.2,0.5,0.3,0.8
		c1.3,3.1,2.6,6.3,4,9.4c0.2,0.5,0.9,0.7,1.3,1c0.2-0.4,0.5-0.8,0.5-1.2c0-5-0.1-10-0.1-15c0-1.1-0.3-1.4-1.4-1.4
		c-9.9,0-19.8,0-29.8,0c-1,0-1.3,0.3-1.3,1.3c0,3.8,0,7.6,0,11.4c0,1.3-0.1,2.7,0,4C136.2,307.5,136.5,308.1,136.7,308.1z"/>
	<path class="fill-Stack" d="M131.6,333.2c0.7-3.8,0.2-7.5-1.9-10.8c-1.1-1.7-2.2-3.3-3.3-5c-3.4-4.9-6.9-9.8-10.2-14.8
		c-0.9-1.4-1.4-3.3-1.7-5c-0.6-2.9,1.5-4.5,4.2-3.4c2,0.8,3.6,2.3,4.9,3.9c2.2,2.7,3.8,5.7,5,8.9c0.2,0.5,0.8,0.7,1.3,1.1
		c0.1-0.5,0.4-1,0.4-1.4c0-4.6,0-9.2,0-13.7c0-2.9-0.5-3.2-2.9-1.7c-1.7,1.1-3.4,1.3-5.3,0.4c-2.4-1.2-5.1-1.4-7.8-0.9
		c-4.7,0.9-7.1,3.8-7,8.6c0.1,4,1.4,7.6,3.6,10.9c3,4.4,6.2,8.6,9.1,13c1.5,2.2,2.6,4.6,3.7,7c0.5,1,0.7,2.2,0.7,3.4
		c0,2.1-1.6,3.5-3.6,3.1c-1.3-0.3-2.7-0.7-3.7-1.6c-1.4-1.3-2.8-2.8-3.7-4.5c-1.3-2.2-2.1-4.7-3.2-7c-0.2-0.4-0.8-0.6-1.1-0.9
		c-0.2,0.4-0.5,0.8-0.5,1.2c0,5.2,0,10.4,0,15.6c0,0.4,0.1,0.8,0.3,1.3c1.3-0.7,2.4-1.1,3.4-1.8c1.1-0.7,2.1-0.8,3.4-0.2
		c3,1.4,6.1,2.2,9.4,1.1C128.4,338.8,131,336.8,131.6,333.2z"/>
	<path class="fill-Stack" d="M75,295.7c2.5,7.3,4.9,14.7,7.3,22c0.6,1.7,0.8,3.4,0.8,5.1c-0.1,3.1-0.1,6.2-0.1,9.4c0.1,4.2,0.6,3.9-3.5,6.5
		c-0.6,0.4-1.1,0.9-1.7,1.3c0.1,0.1,0.1,0.2,0.2,0.3c6.1,0,12.3,0,18.4,0c0.1-0.2,0.1-0.3,0.2-0.5c-1.2-0.8-2.4-1.6-3.7-2.3
		c-1.1-0.6-1.5-1.4-1.5-2.6c0-5.2-0.1-10.3,0-15.5c0-1,0.1-2.1,0.5-3.1c2-5.8,4.2-11.6,6-17.5c1-3.3,2.3-5.9,5.7-7.1
		c0.4-0.1,0.5-0.7,0.8-1.1c-0.4-0.1-0.8-0.4-1.2-0.4c-4.5,0-9,0.1-13.5,0.1c-0.4,0-0.8,0.1-1.1,0.2c0,0.1-0.1,0.2-0.1,0.3
		c0.5,0.4,0.9,0.7,1.4,1.1c0.9,0.5,1.7,1,2.6,1.5c0.6,0.4,0.6,0.8,0.4,1.5c-1.5,4.3-2.9,8.6-4.3,12.9c-0.2,0.5-0.4,1-0.6,1.7
		c-0.3-0.5-0.4-0.8-0.5-1c-1.5-4.6-2.9-9.2-4.4-13.8c-0.1-0.4,0.1-1,0.4-1.2c0.8-0.6,1.8-0.9,2.6-1.5c0.4-0.3,0.7-0.9,1-1.4
		c-0.5-0.1-1-0.3-1.4-0.3c-4.7,0-9.4,0-14.1,0.1c-0.5,0-0.9,0.2-1.4,0.3c0,0.1,0,0.3,0,0.4c0.7,0.5,1.6,0.9,2.2,1.5
		C73.3,293.7,74.7,294.5,75,295.7z"/>
</g>
</svg>
